<svg id="Grupo_30" data-name="Grupo 30" xmlns="http://www.w3.org/2000/svg" width="22.167" height="37.574" viewBox="0 0 22.167 37.574">
  <g id="Grupo_29" data-name="Grupo 29">
    <path id="Trazado_48" data-name="Trazado 48" d="M228.679,344.96a3.47,3.47,0,0,0-3.413,3.413c0,.057,0,.118,0,.175a3.415,3.415,0,0,0,3.527,3.295h-.115a3.441,3.441,0,0,0,0-6.882Z" transform="translate(-218.097 -314.27)" fill="#85c40d"/>
    <path id="Trazado_49" data-name="Trazado 49" d="M183.185,116.652a14.335,14.335,0,0,0-10.754,4.387,2.244,2.244,0,0,0-.488,1.434,2.38,2.38,0,0,0,2.294,2.351,2.418,2.418,0,0,0,1.606-.6,9.384,9.384,0,0,1,6.8-2.868c3.871,0,5.735,2.093,5.735,4.56,0,5.276-9.377,5.936-9.377,12.79,0,1.663,1.032,4.732,3.183,4.732h.057a2.094,2.094,0,0,0,2.093-2.093c0-.774-.545-1.434-.545-2.208,0-5.162,10.094-5.879,10.323-13.879C194.111,120.38,189.981,116.652,183.185,116.652Z" transform="translate(-171.944 -116.646)" fill="#85c40d"/>
  </g>
</svg>
