<svg xmlns="http://www.w3.org/2000/svg" width="244.799" height="259.073" viewBox="0 0 244.799 259.073">
  <g id="Grupo_481" data-name="Grupo 481" transform="translate(-65 -106.667)">
    <g id="Grupo_19" data-name="Grupo 19" transform="translate(-4363 -953)">
      <g id="Screen" transform="translate(4453.828 1060.167)">
        <rect id="Rectangle" width="212.35" height="176.7" transform="translate(3.1 3.1)" fill="#eff4f8"/>
        <line id="Path-886" y1="100.75" transform="translate(3.875 20.15)" fill="none" stroke="#bdcfdd" stroke-width="1"/>
        <path id="Path-2" d="M1770.113,591.588h149.471V486.562" transform="translate(-1701.113 -408.945)" fill="none" stroke="#bdcfdd" stroke-width="1"/>
        <rect id="Rectangle-2" data-name="Rectangle" width="176.7" height="20.15" transform="translate(0 0)" fill="none" stroke="#bdcfdd" stroke-width="1"/>
        <ellipse id="Oval" cx="3.875" cy="3.875" rx="3.875" ry="3.875" transform="translate(10.85 7.75)" fill="#bdcfdd"/>
        <ellipse id="Oval-Copy-11" cx="3.875" cy="3.875" rx="3.875" ry="3.875" transform="translate(21.7 7.75)" fill="#bdcfdd"/>
        <ellipse id="Oval-Copy-12" cx="3.875" cy="3.875" rx="3.875" ry="3.875" transform="translate(32.55 7.75)" fill="#bdcfdd"/>
      </g>
      <g id="Black-Girl-3" transform="translate(4428 1137.209)">
        <g id="Group-45" transform="translate(0 97.993)">
          <path id="Path-312" d="M287.642,678.352l-14.156-5.979L261,707.118l24.973-13.086Z" transform="translate(-261 -624.056)" fill="#ff226f"/>
          <path id="Path-314" d="M340.388,685.379l2.347,17.373H378.87l-14.216-16.176Z" transform="translate(-234.345 -619.689)" fill="#ff226f"/>
          <path id="Path-313" d="M317.854,680.538l15.7-8.8a5.341,5.341,0,0,1,7.729,3.115l9.471,31.329h33.073L361.75,648.248a18.7,18.7,0,0,0-24.133-10.817q-.589.224-1.165.489l-1.759.809-29.721,15.852Z" transform="translate(-246.236 -636.201)" fill="#ff9e00"/>
          <path id="Path-310" d="M289.411,643.58q-10.3,26.065,9.183,43.161L288.357,683.2q-3.787-1.3-6.922-2.359l-8.486,28.7,55.717,7.572a16.029,16.029,0,0,0,15.293-25.071L316.15,652.288Z" transform="translate(-256.988 -633.723)" fill="#ff9e00"/>
          <path id="Path-311" d="M292.148,675.892q12.557,9.431,24.289,16.959" transform="translate(-250.542 -622.874)" fill="none" stroke="#ff6400" stroke-linecap="round" stroke-width="1"/>
          <line id="Path-325" x2="27.136" y2="36.81" transform="translate(58.736 19.368)" fill="none" stroke="#ff6400" stroke-linecap="round" stroke-width="1"/>
        </g>
        <g id="Group-44" transform="translate(9.48 6.383)">
          <path id="Path-309" d="M293.53,677.793h15.71l29.294-16.036,1.006-19.589q20.393,7.377,32.263-5.786c11.87-13.164,17.64-34.568,20.953-39.568s5.9-5.953,7.053-7.906q1.15-1.954-1.151-4.467,2.218-9.243,1.151-12.306c-1.067-3.064-7.411-4.516-10.6-4.516s-10.722,14.912-17.4,27.006-10.781,21.625-19.974,16.017-16.39-12.194-33.948-10.892q-17.558,1.3-15.862,12.7Z" transform="translate(-259.558 -567.618)" fill="#85c40d"/>
          <path id="Path" d="M368.453,567.618c3.19,0,9.533,1.452,10.6,4.516q1.066,3.064-1.151,12.306,2.3,2.514,1.151,4.467c-1.117,1.894-3.584,2.846-6.754,7.463l-.3.443c-.043.064-.087.132-.131.2l-1.32-.859q-4.4-2.827-15.208-9.394l2.36-4.3C362.2,574.365,366.308,567.618,368.453,567.618Z" transform="translate(-238.803 -567.618)" fill="#8b502e"/>
          <path id="Path-2-2" data-name="Path" d="M323.838,623.659l-.147,2.359q-1.623,24.534-6.819,39.524l-7.633,4.178H293.53l8.489-65.34q-1.671-11.226,15.326-12.66l.765-.06h0Q325.346,597.741,323.838,623.659Z" transform="translate(-259.558 -559.546)" fill="#4533fa"/>
          <path id="Path-308" d="M296,615.953q-16.306,59.634-25.02,81.1a219.4,219.4,0,0,0,21.765,9.556q19-67.889,21.495-112.783Q305.2,604.95,296,615.953Z" transform="translate(-267.131 -558.819)" fill="#85c40d"/>
          <path id="Path-307" d="M316.748,591.673a72.275,72.275,0,0,0-40.164,25.208c-15.855,19.4-8.677,54.962,14.712,71.225s22.451,6.779,23.9,3.3q1.451-3.482-6.595-10.691,2.244-2.27,0-4.465c-2.245-2.2-14.477-8-17.31-23.484s6.563-26.672,11.936-29.331Q308.607,620.772,316.748,591.673Z" transform="translate(-268.097 -559.541)" fill="#85c40d"/>
          <path id="Path-3" data-name="Path" d="M283.449,666.522l11.614-16.561c3.677,3.632,7.271,5.62,8.389,6.714q2.244,2.194,0,4.466,7.85,7.033,6.659,10.519l-.15.389c-1.34,3.636-.9,12.425-23.819-3.512q-1.385-.964-2.693-2.014l11.614-16.561Z" transform="translate(-262.942 -539.971)" fill="#8b502e"/>
          <line id="Path-315" y1="19.047" x2="1.005" transform="translate(80.313 55.088)" fill="none" stroke="#04641a" stroke-linecap="round" stroke-width="1"/>
          <line id="Path-316" x2="10.858" y2="7.077" transform="translate(31.183 128.303)" fill="none" stroke="#633417" stroke-linecap="round" stroke-width="1"/>
          <line id="Path-317" x2="9.915" y2="9.288" transform="translate(32.127 123.27)" fill="none" stroke="#633417" stroke-linecap="round" stroke-width="1"/>
          <line id="Path-318" x2="12.047" y2="11.334" transform="translate(35.056 121.225)" fill="none" stroke="#633417" stroke-linecap="round" stroke-width="1"/>
          <line id="Path-319" y1="10.265" x2="5.387" transform="translate(125.548 2.444)" fill="none" stroke="#633417" stroke-linecap="round" stroke-width="1"/>
          <line id="Path-320" y1="13.49" x2="6.505" transform="translate(128.587 1.673)" fill="none" stroke="#633417" stroke-linecap="round" stroke-width="1"/>
          <line id="Path-321" y1="12.155" x2="5.041" transform="translate(133.118 4.533)" fill="none" stroke="#633417" stroke-linecap="round" stroke-width="1"/>
          <line id="Path-322" y1="4.844" x2="2.004" transform="translate(137.095 16.823)" fill="none" stroke="#633417" stroke-linecap="round" stroke-width="1"/>
          <path id="Path-323" d="M294.593,660.789q-18.972-22.254-.943-43.078" transform="translate(-262.467 -550.799)" fill="none" stroke="#04641a" stroke-linecap="round" stroke-width="1"/>
          <path id="Path-324" d="M296.061,674.12q-16.917-9.094-25.086-28.9" transform="translate(-267.131 -541.563)" fill="none" stroke="#04641a" stroke-linecap="round" stroke-width="1"/>
        </g>
        <g id="Group-42" transform="translate(40.608 0)">
          <path id="Path-289" d="M311.595,594.913q-2.987,5.889-7.968,4.98c-4.981-.91-1.72.749-6.5-.418s-4.109-7.519-4.734-8.765-2.232-6.263.767-8.735-2.685-3.7,2.3-6.947,4.9-5.473,10.344-9.106a18.336,18.336,0,0,1,17.876-1.373c5.31,2.635,5.645,9.313,9.835,12.724s6.257,6.759,4.131,10.089.135,4.9-2.582,5.839-2.386.482-3.016,2.08-1.985,3.323-4.305,2.761-1.911.546-3.381-.017q-1.469-.565-4.045-3.631Z" transform="translate(-291.401 -562.839)" fill="#ff226f"/>
          <path id="Path-290" d="M304.046,584.66q.639,11.152,0,13.817c-.639,2.663,3.114,3.727,7.531,3.727s6.42-1.584,6.42-2.655-1.9-9.278-1.232-13.054Q317.432,582.717,304.046,584.66Z" transform="translate(-287.179 -555.734)" fill="#8b502e"/>
          <path id="Path-4" data-name="Path" d="M304.028,584.66q13.134-1.906,12.739,1.694l-.02.14a17.274,17.274,0,0,0-.041,4.129,28.786,28.786,0,0,1-12.36,3.627v-.87Q304.333,589.987,304.028,584.66Z" transform="translate(-287.161 -555.734)" fill="#633418"/>
          <path id="Path-286" d="M300.271,577.727c-.521,4.4-1.214,12.536,6.386,16.816s16.107-1.082,17.306-9.342-1.612-16.062-9.871-17.3A12.128,12.128,0,0,0,300.271,577.727Z" transform="translate(-288.521 -561.189)" fill="#8b502e"/>
          <path id="Path-5" data-name="Path" d="M300.24,577.727a12.128,12.128,0,0,1,13.821-9.824c7.316,1.094,10.359,7.343,10.124,14.5q-3.5-9.287-11.271-9.584a14.082,14.082,0,0,0-12.845,6.526l.083-.839Q300.2,578.1,300.24,577.727Z" transform="translate(-288.491 -561.189)" fill="#0da12d"/>
          <path id="Oval-2" data-name="Oval" d="M305.3,574.465a4.675,4.675,0,1,1-3.792,5.416A4.675,4.675,0,0,1,305.3,574.465Z" transform="translate(-288.031 -558.96)" fill="none" stroke="#fff" stroke-width="1"/>
          <path id="Oval-Copy-9" d="M313.529,575.045a4.675,4.675,0,1,1-3.792,5.417A4.676,4.676,0,0,1,313.529,575.045Z" transform="translate(-285.269 -558.765)" fill="none" stroke="#fff" stroke-width="1"/>
          <path id="Path-287" d="M309.224,578.449a13.829,13.829,0,0,1-1.826,3.421c-1.631,1.942,1.067,4,2.574,1.5.74-1.226.675-2.295.311-4.281l-.087-.431c-.094-.437-.4-.689-.679-.564A.606.606,0,0,0,309.224,578.449Z" transform="translate(-286.2 -557.727)" fill="#682d2d"/>
          <path id="Path-288" d="M307.168,583.993q2.036,3.076,6.064,2.252" transform="translate(-286.107 -555.737)" fill="none" stroke="#7a1010" stroke-linecap="round" stroke-width="0.4"/>
          <path id="Oval-3" data-name="Oval" d="M305.622,577.32a1.335,1.335,0,1,1-1.083,1.547A1.336,1.336,0,0,1,305.622,577.32Z" transform="translate(-286.997 -557.984)" fill="#101010"/>
          <path id="Oval-Copy-10" d="M312.863,578.074a1.335,1.335,0,1,1-1.083,1.547A1.336,1.336,0,0,1,312.863,578.074Z" transform="translate(-284.565 -557.731)" fill="#101010"/>
        </g>
      </g>
      <g id="Question-Mark" transform="translate(4533.933 1088.31)">
        <ellipse id="Oval-4" data-name="Oval" cx="27.908" cy="27.908" rx="27.908" ry="27.908" transform="translate(3.101 14.471)" fill="#e5edf3"/>
        <g id="_" data-name="?" transform="translate(13.772)">
          <text id="_2" data-name="?" transform="translate(0 62)" fill="#ff9e00" font-size="62" font-family="Muli-Bold, Muli" font-weight="700" letter-spacing="0.042em"><tspan x="0" y="0">?</tspan></text>
        </g>
        <ellipse id="Oval-Copy-10-2" data-name="Oval-Copy-10" cx="27.908" cy="27.908" rx="27.908" ry="27.908" transform="translate(0 11.37)" fill="none" stroke="#ff338a" stroke-linecap="round" stroke-linejoin="round" stroke-width="1"/>
      </g>
    </g>
  </g>
</svg>
