<svg xmlns="http://www.w3.org/2000/svg" width="70.811" height="80.374" viewBox="0 0 70.811 80.374">
  <g id="Grupo_489" data-name="Grupo 489" transform="translate(-0.36)">
    <path id="Trazado_41" data-name="Trazado 41" d="M191.778,166.64a1.256,1.256,0,0,0-.452-.015,3,3,0,0,1-2.651-2.972,1.318,1.318,0,0,0-2.637,0,5.64,5.64,0,0,0,4.147,5.431V170.4a1.318,1.318,0,0,0,2.637,0v-1.239a5.63,5.63,0,0,0-1.154-11.14,2.993,2.993,0,1,1,2.993-2.993,1.318,1.318,0,0,0,2.637,0,5.64,5.64,0,0,0-4.477-5.511v-1.2a1.318,1.318,0,0,0-2.637,0v1.28a5.629,5.629,0,0,0,1.483,11.06,2.991,2.991,0,0,1,.109,5.981Zm0,0" transform="translate(-155.079 -122.775)" fill="#ff226f"/>
    <path id="Trazado_42" data-name="Trazado 42" d="M104.2,125.61a19.118,19.118,0,1,0,19.118-19.118A19.117,19.117,0,0,0,104.2,125.61Zm19.118-16.481a16.481,16.481,0,1,1-16.481,16.481A16.481,16.481,0,0,1,123.313,109.129Zm0,0" transform="translate(-86.724 -88.942)" fill="#ff226f"/>
    <path id="Trazado_43" data-name="Trazado 43" d="M62.206,331.609l-10.327,4.88a8.412,8.412,0,0,0-7.171-4.425l-9.534-.262a10.069,10.069,0,0,1-4.333-1.119l-.97-.5a17.111,17.111,0,0,0-15.849.017l.061-2.2a1.318,1.318,0,0,0-1.282-1.354l-10.454-.288a1.318,1.318,0,0,0-1.354,1.282L.361,350.58a1.318,1.318,0,0,0,1.282,1.354l10.454.288h.036a1.318,1.318,0,0,0,1.318-1.282l.03-1.1,2.716-1.454a4.659,4.659,0,0,1,3.477-.38l16.218,4.552c.028.008.057.015.086.021a17.363,17.363,0,0,0,3.564.368,17.59,17.59,0,0,0,7.348-1.6,1.218,1.218,0,0,0,.164-.09l23.515-15.21A1.319,1.319,0,0,0,71,334.288,6.66,6.66,0,0,0,62.206,331.609ZM3.033,349.335l.559-20.306,7.818.215-.559,20.307Zm42.67-.345a14.947,14.947,0,0,1-9.141,1.02l-16.174-4.54a7.29,7.29,0,0,0-5.434.594l-1.388.743.371-13.5a14.492,14.492,0,0,1,14.722-.785l.97.5a12.733,12.733,0,0,0,5.473,1.414l9.534.262a5.782,5.782,0,0,1,5.5,4.608l-14.2-.392a1.319,1.319,0,1,0-.073,2.636l15.672.431h.037a1.318,1.318,0,0,0,1.317-1.282,8.367,8.367,0,0,0-.127-1.71l10.593-5.005.031-.015a4.028,4.028,0,0,1,4.555.638Zm0,0" transform="translate(0 -272.574)" fill="#ff226f"/>
    <path id="Trazado_44" data-name="Trazado 44" d="M214.84,13.843V1.318a1.318,1.318,0,0,0-2.637,0V13.843a1.318,1.318,0,0,0,2.637,0Zm0,0" transform="translate(-176.932)" fill="#ff226f"/>
    <path id="Trazado_45" data-name="Trazado 45" d="M274.84,47.251V41.318a1.318,1.318,0,1,0-2.637,0v5.933a1.318,1.318,0,1,0,2.637,0Zm0,0" transform="translate(-227.044 -33.408)" fill="#ff226f"/>
    <path id="Trazado_46" data-name="Trazado 46" d="M154.84,47.251V41.318a1.318,1.318,0,1,0-2.637,0v5.933a1.318,1.318,0,1,0,2.637,0Zm0,0" transform="translate(-126.82 -33.408)" fill="#ff226f"/>
  </g>
</svg>
