<svg xmlns="http://www.w3.org/2000/svg" width="264.36" height="272.771" viewBox="0 0 264.36 272.771">
  <g id="Grupo_17" data-name="Grupo 17" transform="translate(-55.813 -109.975)">
    <g id="Business-Presentation" transform="translate(-1274 -1532)">
      <g id="Group-22-Copy">
        <rect id="Rectangle" width="55" height="63" transform="translate(1489.813 1838.625)" fill="#e5edf3"/>
        <g id="Group-21">
          <rect id="Rectangle-2" data-name="Rectangle" width="31" height="9" transform="translate(1494.813 1844.625)" fill="none" stroke="#fff" stroke-linejoin="round" stroke-width="1"/>
          <circle id="Oval" cx="1.5" cy="1.5" r="1.5" transform="translate(1507.813 1848.625)" fill="#fff"/>
        </g>
        <g id="Group-21-Copy">
          <rect id="Rectangle-3" data-name="Rectangle" width="31" height="9" transform="translate(1494.813 1858.625)" fill="none" stroke="#fff" stroke-linejoin="round" stroke-width="1"/>
          <circle id="Oval-2" data-name="Oval" cx="1.5" cy="1.5" r="1.5" transform="translate(1507.813 1862.625)" fill="#fff"/>
        </g>
        <g id="Group-21-Copy-2">
          <rect id="Rectangle-4" data-name="Rectangle" width="31" height="9" transform="translate(1494.813 1872.625)" fill="none" stroke="#fff" stroke-linejoin="round" stroke-width="1"/>
          <circle id="Oval-3" data-name="Oval" cx="1.5" cy="1.5" r="1.5" transform="translate(1507.813 1876.625)" fill="#fff"/>
        </g>
        <g id="Group-21-Copy-3">
          <rect id="Rectangle-5" data-name="Rectangle" width="31" height="9" transform="translate(1494.813 1886.625)" fill="none" stroke="#fff" stroke-linejoin="round" stroke-width="1"/>
          <circle id="Oval-4" data-name="Oval" cx="1.5" cy="1.5" r="1.5" transform="translate(1507.813 1890.625)" fill="#fff"/>
        </g>
        <rect id="Rectangle-6" data-name="Rectangle" width="13" height="63" transform="translate(1531.813 1838.625)" fill="#bdcfdd"/>
        <rect id="Rectangle-7" data-name="Rectangle" width="4" height="6" transform="translate(1494.813 1901.625)" fill="#bdcfdd"/>
        <rect id="Rectangle-Copy-26" width="4" height="6" transform="translate(1521.813 1901.625)" fill="#bdcfdd"/>
        <rect id="Rectangle-Copy-25" width="4" height="6" transform="translate(1508.813 1901.625)" fill="#bdcfdd"/>
        <rect id="Rectangle-Copy-27" width="4" height="6" transform="translate(1535.813 1901.625)" fill="#bdcfdd"/>
      </g>
      <g id="Group-15-Copy-2">
        <path id="Path-133" d="M1526.291,1773.277l-5.043,9.58a2,2,0,0,1-3.592-.107l-2.765-6.082q-5.074-11.089-6.493-13.584c-1.964-3.456-3.234-3.3-3.935-2.468l-1.8-2.632q-.468-.688-.954-1.408a3,3,0,0,0-3.824-1l-2.032,1.013a3,3,0,0,0-1.452,3.783l1.941,4.92q3.218,8.132,5.874,14.692l.617,1.522q2.827,6.957,8.5,18.757a10,10,0,0,0,15.067,3.624l9.381-7.137,2.495-16.821Z" fill="#a86944"/>
        <path id="Path-147" d="M1570.153,1825.537l9.328,89.18h-26.353l6.958-9.028-12.8-53.143-3.675,62.171H1519.1l9.432-8.571-3.555-80.609Z" fill="#ff9e00"/>
        <path id="Shape" d="M1544.133,1905.887l-15.605.259-9.432,8.571h24.515Zm18.839-.217-2.886.019-6.957,9.028h26.352l-.949-9.059-4.716-.009q-5.934-.006-10.844.021Z" fill="#101010"/>
        <path id="Path-131" d="M1570.153,1756.131c7.644,2.93,16.06,10.914,19.508,19.348-1.99,1.673-3.419,5.853-6.344,7a71.3,71.3,0,0,1-7.96,1.8l-1.785-2.571-3.419,43.827h-45.18l10.405-43.827-9.087-8.433q8.1-14.55,16.522-17.146C1551.234,1753.536,1562.51,1753.2,1570.153,1756.131Z" fill="#ff226f"/>
        <g id="Group-105">
          <path id="Path-595" d="M1562.013,1742.749v14.173q-7.443,3.283-11.4.7v-9.389Z" fill="#a86944"/>
          <path id="Path" d="M1562.013,1742.749l-11.4,5.484v4.245a19.976,19.976,0,0,0,11.4,1.761Z" fill="#804624"/>
          <path id="Path-594" d="M1543.544,1738.108q-1.128-9.114,3.071-13.386c4.2-4.272,13.581-4.207,18.017,2.422s1.515,15.918-3.493,18.678Q1556.132,1748.581,1543.544,1738.108Z" fill="#451c14"/>
          <path id="Path-593" d="M1560.813,1741.6q-1.738,6.135-4.8,8.132c-3.061,2-7.229,2.4-9.565-2s-1.963-5.122-2.9-9.764c1.515-2.045.925-7.319,1.706-7.814a11.917,11.917,0,0,1,9.873-1.993h0a3.6,3.6,0,0,1,2.7,2.815q.729,3.744,1.481,4.666c.94,1.151,1.332,1.427,2.124-.046s2.988-1.709,2.988,1.566Q1564.413,1740.439,1560.813,1741.6Z" fill="#a86944"/>
          <circle id="Oval-5" data-name="Oval" cx="1.2" cy="1.2" r="1.2" transform="translate(1553.613 1736.222)" fill="#451c14"/>
          <circle id="Oval-Copy-12" cx="1.2" cy="1.2" r="1.2" transform="translate(1546.413 1736.222)" fill="#451c14"/>
          <path id="Path-3" d="M1550.075,1739.773a9.757,9.757,0,0,1-1.095,1.709l-.287.354c-1.678,2-.578,3.66,1.137,2.944.781-.326,1.424-1.543,1.381-3.5a7.537,7.537,0,0,0-.13-1.092l-.053-.285a.507.507,0,0,0-.953-.126Z" fill="#804624"/>
          <path id="Path-596" d="M1549.536,1747.352a10.131,10.131,0,0,0,5.277-1.53" fill="none" stroke="#7a1010" stroke-linecap="round" stroke-width="0.6"/>
        </g>
        <path id="Path-132" d="M1590.542,1816.042c-3.268,7.7-10.578,18.769-17.565,22.009a3,3,0,0,1-3.775-1.083l-.833-1.278a3,3,0,0,1-.117-3.082l3.12-5.682q-2.9.693-2.3-1.389c.6-2.082,2.579-1.4,5.611-5.913s8.425-22.3.677-35.343l14.3-8.8C1593.521,1782.857,1597.092,1800.607,1590.542,1816.042Z" fill="#a86944"/>
        <path id="Path-134" d="M1521.248,1782.857q-2.309,4.464-4.3,5.931" fill="none" stroke="#753439" stroke-linecap="round" stroke-width="1"/>
        <line id="Path-135" x2="2.072" y2="3.882" transform="translate(1504.463 1760.616)" fill="none" stroke="#753439" stroke-linecap="round" stroke-width="1"/>
        <path id="Path-136" d="M1503.918,1762.557a11.5,11.5,0,0,0-5.662,2.843" fill="none" stroke="#753439" stroke-linecap="round" stroke-width="1"/>
        <line id="Path-137" x1="3.099" y1="6.096" transform="translate(1496.192 1758.401)" fill="none" stroke="#753439" stroke-linecap="round" stroke-width="1"/>
        <line id="Path-138" x1="3.853" y1="7.513" transform="translate(1497.234 1755.868)" fill="none" stroke="#753439" stroke-linecap="round" stroke-width="1"/>
        <line id="Path-139" x1="2.572" y1="4.898" transform="translate(1500.405 1757.659)" fill="none" stroke="#753439" stroke-linecap="round" stroke-width="1"/>
        <path id="Path-140" d="M1507.147,1767.858q-3.495-2.906-7.225-1.453" fill="none" stroke="#753439" stroke-linecap="round" stroke-width="1"/>
        <path id="Path-143" d="M1573.572,1781.71a21.751,21.751,0,0,0-6.185-6.231" fill="none" stroke="#9f1047" stroke-linecap="round" stroke-linejoin="round" stroke-width="1"/>
        <line id="Path-144" y1="10.987" x2="3.435" transform="translate(1535.378 1770.724)" fill="none" stroke="#9f1047" stroke-linecap="round" stroke-linejoin="round" stroke-width="1"/>
        <line id="Path-148" x1="4.839" y1="20.07" transform="translate(1542.447 1832.476)" fill="none" stroke="#ff6400" stroke-linecap="round" stroke-width="1"/>
        <path id="Path-149" d="M1573.706,1829.4a31.836,31.836,0,0,1-4.673,4.876" fill="none" stroke="#753439" stroke-linecap="round" stroke-width="1"/>
        <path id="Path-150" d="M1576,1830.355a27.945,27.945,0,0,1-5.989,5.672" fill="none" stroke="#753439" stroke-linecap="round" stroke-width="1"/>
        <path id="Path-151" d="M1576.754,1833.191a15.8,15.8,0,0,1-5.384,3.82" fill="none" stroke="#753439" stroke-linecap="round" stroke-width="1"/>
        <line id="Path-152" x1="4.072" y1="39.152" transform="translate(1573.706 1859.28)" fill="none" stroke="#ff6400" stroke-linecap="round" stroke-width="1"/>
        <line id="Path-153" y1="30.541" x2="1.982" transform="translate(1544.338 1867.891)" fill="none" stroke="#ff6400" stroke-linecap="round" stroke-width="1"/>
        <line id="Path-599" x2="9.873" y2="80.085" transform="translate(1563.132 1825.537)" fill="none" stroke="#ff6400" stroke-linecap="round" stroke-width="1"/>
        <line id="Path-600" x1="11.817" y1="14.306" transform="translate(1551.314 1826.818)" fill="none" stroke="#ff6400" stroke-linecap="round" stroke-width="1"/>
        <line id="Path-601" x1="5.197" y2="13.175" transform="translate(1526.417 1826.818)" fill="none" stroke="#ff6400" stroke-linecap="round" stroke-width="1"/>
      </g>
      <g id="Group-22">
        <g id="Group-20">
          <path id="Shape-Copy" d="M1373.813,1857.625a4,4,0,0,1,4,4v9.993a4,4,0,0,1-3,3.871v32.266a7,7,0,0,1-7,6.995h-28a7,7,0,0,1-7-6.995v-32.266a4,4,0,0,1-3-3.871v-9.993a4,4,0,0,1,4-4Zm-1,17.986h-38v32.14a5,5,0,0,0,5,5h28a5,5,0,0,0,5-5Z" fill="#bdcfdd"/>
          <g id="Group-117-Copy">
            <g id="Group-120">
              <path id="Path-629" d="M1375.519,1798.625q3.68,17.673,12.17,19.581c8.491,1.907,22.749.931,28.263,5.9s-22.04,3.6-33.512,3.6-17.194-9.275-20.075-14.842Q1359.485,1807.293,1375.519,1798.625Z" fill="#ffac77"/>
              <path id="Path-2" data-name="Path" d="M1375.519,1798.625l-.876.479q-15.078,8.343-12.278,13.757l.23.441c2.952,5.6,8.67,14.4,19.845,14.4l1.465.007c4.273.032,10.142.185,15.735.162l1.668-8.042c-4.827-.493-9.8-.768-13.619-1.624Q1379.2,1816.3,1375.519,1798.625Z" fill="#4533fa"/>
              <path id="Path-666" d="M1413.4,1826.735q1.017-1.573-5.635-2.633" fill="none" stroke="#cf7576" stroke-linecap="round" stroke-width="1"/>
            </g>
            <path id="Path-660" d="M1364.875,1783.625c5.317-.214,9.076,4.441,10.569,13.542q1.492,9.1-4.771,45.855h-34.63q7.106-33.35,12.182-43.919C1353.3,1788.534,1359.558,1783.838,1364.875,1783.625Z" fill="#4533fa"/>
            <g id="Group-25">
              <path id="Path-218" d="M1366.6,1760.729a7.692,7.692,0,0,0-6.6-5.5c-5.126-.857-7.72,1.414-10.985,5.5s.069,10.7,3.151,13.077,10.93,1.5,12.562.751Q1366.361,1773.806,1366.6,1760.729Z" fill="#323f7f"/>
              <path id="Path-210" d="M1356.9,1771.279q-1.737-3.843,1.17-7.962c2.907-4.12,6.686-4.523,9.125-2.7Q1369.635,1762.447,1356.9,1771.279Z" fill="#ff226f"/>
              <path id="Path-217" d="M1364.181,1761.282a9.8,9.8,0,0,1-.447-7.657c3.119,2.043,4.382,4.4,4.117,6.972Q1367.587,1763.168,1364.181,1761.282Z" fill="#ff226f"/>
              <path id="Path-208" d="M1371.07,1788.625q.717-3.414,1.464-6.516a3.406,3.406,0,0,0,3.789-2.475,25.357,25.357,0,0,0,1.238-10.832c-.341-4.636-2.681-8.427-7.422-9.388s-8.229,1.363-11.25,5.219-3.022,12.166,2.96,16.144q-.97,5.173-.619,4.434A35.79,35.79,0,0,1,1371.07,1788.625Z" fill="#ffac77"/>
              <path id="Path-3-2" data-name="Path-3" d="M1377.76,1772.689a7.614,7.614,0,0,0,.686,1.428l.189.3c1.11,1.712.1,2.893-1.162,2.174-.574-.327-.956-1.332-.737-2.847a5.959,5.959,0,0,1,.205-.835l.068-.216a.4.4,0,0,1,.5-.253A.391.391,0,0,1,1377.76,1772.689Z" fill="#d96b6c"/>
              <path id="Oval-6" data-name="Oval" d="M1375.156,1771.941c.552,0,.86-.416.86-1.244s-.308-1.385-.86-1.385-.841.556-.841,1.385S1374.6,1771.941,1375.156,1771.941Z" fill="#323f7f"/>
              <path id="Path-3-3" data-name="Path" d="M1367.587,1781.122l4.948.987-.748,3.1Z" fill="#cf7576"/>
              <path id="Combined-Shape" d="M1358.889,1764.633c3.021-3.856,6.508-6.181,11.25-5.219a8.564,8.564,0,0,1,6.173,4.632c-2.5-1.1-5.368-1.438-5.357-.066.016,1.932-.015,3.788-2.263,2.2.854,3.773-.484,5-1.2,3.9s-2.2-1.992-3.466-.279-.258,4.008,1.906,5.223a8.568,8.568,0,0,1-3.812,5.765h-.272l0-.009c-5.887-3.915-5.98-12.025-3.1-15.957Z" fill="#323f7f"/>
              <path id="Path-219" d="M1376.323,1777.441a9.549,9.549,0,0,1-3.167-1.244" fill="none" stroke="#d96b6c" stroke-linecap="round" stroke-width="0.4"/>
            </g>
            <g id="Group-116">
              <path id="Path-623" d="M1390.8,1807.471c11.33-7.408,17.728-23.589,20.1-23.837q2.376-.248,0,5.744,2.406,1.133,3.126,5.033c.721,3.9,1.476,5.25-1.56,6.972s-2.837-.693-7.341,7.164-10.141,12.6-25.9,12.6-22.07-13.59-23.342-19.765-1.007-8.589,2.628-10.359,9.151-1.992,12.061,4.184S1379.466,1814.879,1390.8,1807.471Z" fill="#ffac77"/>
              <path id="Path-4" data-name="Path" d="M1370.576,1795.208c-2.91-6.176-8.832-8.957-12.467-7.187s-5.739,7.187-4.467,13.362,10.068,23.395,25.824,23.395c15.587,0,21.038-8.194,25.514-15.977l.146-.254q.336-.585.637-1.1l-6.763-7.515a38.5,38.5,0,0,1-8.2,7.536C1379.466,1814.879,1373.487,1801.383,1370.576,1795.208Z" fill="#4533fa"/>
              <path id="Path-624" d="M1406.393,1792.671a6.383,6.383,0,0,1,4.508-3.293" fill="none" stroke="#cf7576" stroke-linecap="round" stroke-width="1"/>
              <path id="Path-625" d="M1406.116,1794.414q3.742-3.913,6.678-3.153" fill="none" stroke="#cf7576" stroke-linecap="round" stroke-width="1"/>
              <path id="Path-626" d="M1408.647,1803.1q2.539-4.323,3.075-5.2" fill="none" stroke="#cf7576" stroke-linecap="round" stroke-width="1"/>
              <path id="Path-627" d="M1413.8,1793.515q-1.1-1.506-3.854.288" fill="none" stroke="#cf7576" stroke-linecap="round" stroke-width="1"/>
            </g>
            <path id="Path-663" d="M1378.094,1840.617q12.1-.652,17.224,7.132t22.5,58.067l14.991,8.93h-27.359Q1379,1859.3,1375.731,1854.47T1378.094,1840.617Z" fill="#ffac77"/>
            <path id="Path-670" d="M1383.971,1849.639l3.428-9.677-6.394-1.71-3.037,10.7Z" fill="#046419"/>
            <path id="Combined-Shape-2" data-name="Combined-Shape" d="M1385.123,1872.623q7.392,15.009,20.331,42.123h27.359l-14.991-8.93q-6.894-19.938-11.859-33.194Z" fill="#ff226f"/>
            <path id="Path-5" data-name="Path" d="M1417.821,1905.813h-16.638l4.27,8.934h27.359Z" fill="#101010"/>
            <path id="Path-661" d="M1337.383,1837.529q-3.686,7.165,0,15.227c3.685,8.061,30.213,7.209,34.252,7.952q4.039.742,10.534,54.038h27.222l-13.419-8.93q-2.568-49.928-7.1-59.639T1337.383,1837.529Z" fill="#ffac77"/>
            <path id="Path-6" data-name="Path" d="M1337.383,1837.529q-3.686,7.165,0,15.227c3.223,7.051,23.929,7.282,31.767,7.727l10.079-20.151Q1366.413,1836.872,1337.383,1837.529Z" fill="#85c40d"/>
            <path id="Path-667" d="M1369.35,1853.312q-20.448,1.086-23.7-12.746" fill="none" stroke="#004710" stroke-linecap="round" stroke-width="1"/>
            <line id="Path-668" x1="4.552" y1="10.623" transform="translate(1351.335 1839.015)" fill="none" stroke="#004710" stroke-linecap="round" stroke-width="1"/>
            <path id="Path-7" data-name="Path" d="M1382.169,1914.746h27.222l-13.419-8.93-.176-3.338q-.953-17.555-2.161-29.855h-17.741l.18.885Q1378.789,1887.011,1382.169,1914.746Z" fill="#ff226f"/>
            <path id="Path-8" data-name="Path" d="M1382.169,1914.746h27.222l-13.419-8.93v0l-14.922,0,.475,3.73Q1381.843,1912.079,1382.169,1914.746Z" fill="#101010"/>
            <path id="Path-662" d="M1383.673,1840.53l-12.469,21.123h-7.518l12.758-24.028Z" fill="#046419"/>
            <path id="Path-9" data-name="Path" d="M1384.621,1842.245q5.988,1.749,8.567,21.789" fill="none" stroke="#cf7576" stroke-linecap="round" stroke-width="1"/>
            <path id="Path-671" d="M1353.269,1799.6q6.243,23.219,26.247,25.175" fill="none" stroke="#323f7f" stroke-linecap="round" stroke-linejoin="round" stroke-width="1"/>
            <path id="Path-672" d="M1363.686,1788.052q4.989,2.142,7.918,9.146c2.928,7,6.244,10.149,10.013,11.887" fill="none" stroke="#323f7f" stroke-linecap="round" stroke-linejoin="round" stroke-width="1"/>
            <path id="Path-673" d="M1404.368,1809.911q-5.93,9.936-11.449,12.063" fill="none" stroke="#323f7f" stroke-linecap="round" stroke-linejoin="round" stroke-width="1"/>
            <line id="Path-669" x1="2.135" y1="35.215" transform="translate(1394.038 1870.601)" fill="none" stroke="#9f1047" stroke-linecap="round" stroke-linejoin="round" stroke-width="1"/>
          </g>
        </g>
        <path id="Path-10" data-name="Path" d="M1454.413,1830.625v84.121h4v-86.121a2,2,0,0,0-2-2h-73.6a2,2,0,0,0-2,2v86.121h4v-84.121Z" fill="#bdcfdd"/>
        <path id="Path-897" d="M1404.813,1825.47a.5.5,0,0,0,0,1h28.505a.5.5,0,0,0,.469-.324l9.859-26.23a.5.5,0,1,0-.936-.352l-9.738,25.906Z" fill="#323f7f"/>
      </g>
    </g>
    <g id="Group-23-Copy-2" transform="translate(-860 -2273)">
      <path id="Path-2-2" data-name="Path-2" d="M1079.776,2536.809H954.413V2400.525" fill="none" stroke="#bdcfdd" stroke-linecap="round" stroke-linejoin="round" stroke-width="1.3"/>
      <line id="Path-11" x2="41.351" transform="translate(1091.298 2536.809)" fill="none" stroke="#bdcfdd" stroke-linecap="round" stroke-linejoin="round" stroke-width="1.3"/>
      <rect id="Rectangle-8" data-name="Rectangle" width="148.2" height="16.9" transform="translate(951.813 2383.625)" fill="none" stroke="#bdcfdd" stroke-width="1.3"/>
      <circle id="Oval-7" data-name="Oval" cx="3.25" cy="3.25" r="3.25" transform="translate(960.913 2390.125)" fill="#bdcfdd"/>
      <circle id="Oval-Copy-11" cx="3.25" cy="3.25" r="3.25" transform="translate(970.013 2390.125)" fill="#bdcfdd"/>
      <circle id="Oval-Copy-12-2" data-name="Oval-Copy-12" cx="3.25" cy="3.25" r="3.25" transform="translate(979.113 2390.125)" fill="#bdcfdd"/>
      <path id="Path-7-2" data-name="Path-7" d="M1100.682,2386.225h31.831v93.187" fill="none" stroke="#bdcfdd" stroke-linecap="round" stroke-linejoin="round" stroke-width="1.3"/>
    </g>
    <g id="Group-48" transform="translate(-864 -2268)">
      <g id="Group-47">
        <path id="Path-11-2" data-name="Path" d="M1065.313,2481.625a1,1,0,0,0,1-1v-37a1,1,0,0,0-1-1H1050.97a9,9,0,1,0-11.314,0h-9.343a1,1,0,0,0-1,1v12.292a9,9,0,1,0,0,13.415v11.293a1,1,0,0,0,1,1Z" fill="#ff226f"/>
        <path id="Path-Copy-6" d="M1064.313,2483.625a1,1,0,0,0,1-1v-37a1,1,0,0,0-1-1H1049.97a9,9,0,1,0-11.314,0h-9.343a1,1,0,0,0-1,1v12.292a9,9,0,1,0,0,13.415v11.293a1,1,0,0,0,1,1Z" fill="none" stroke="#727272" stroke-linecap="round" stroke-linejoin="round" stroke-width="1"/>
      </g>
    </g>
    <g id="Group-49" transform="translate(-864 -2268)">
      <path id="Path-12" data-name="Path" d="M1025.187,2489.687a2,2,0,0,1-.827,2.705l-29.137,15.493a2,2,0,0,1-2.705-.828l-15.962-30.02a2,2,0,0,1,.827-2.7l29.137-15.493a2,2,0,0,1,2.7.827l4.313,8.11.038.071a.87.87,0,0,1-.925,1.263h0a9,9,0,1,0,6.7,12.277h0a.769.769,0,0,1,1.39-.068v0Q1022.222,2484.11,1025.187,2489.687Z" fill="#bdcfdd"/>
      <path id="Path-Copy-7" d="M1022.951,2489.743a2,2,0,0,1-.827,2.705l-29.137,15.493a2,2,0,0,1-2.705-.827l-15.962-30.02a2,2,0,0,1,.827-2.705l29.137-15.493a2,2,0,0,1,2.705.827l4.313,8.11.038.071a.869.869,0,0,1-.925,1.263h0a9,9,0,1,0,6.7,12.278h0a.77.77,0,0,1,1.391-.069v0Q1019.986,2484.167,1022.951,2489.743Z" fill="none" stroke="#727272" stroke-linecap="round" stroke-linejoin="round" stroke-width="1"/>
    </g>
    <g id="Group-50" transform="translate(-864 -2268)">
      <path id="Path-13" data-name="Path" d="M1097.042,2408.638a.869.869,0,0,1-.349,1.47l-.114.025a9,9,0,1,0,10.306,9.747l.024-.319a.768.768,0,0,1,1.292-.517l9.124,8.509a2,2,0,0,1,.1,2.827l-22.506,24.134a2,2,0,0,1-2.827.1l-9.1-8.49a.782.782,0,0,1,.44-1.349l.1-.014a9,9,0,1,0-10.223-10.021l-.04.409a.857.857,0,0,1-1.349.642l-.091-.073-6.036-5.63a2,2,0,0,1-.1-2.826l22.506-24.135a2,2,0,0,1,2.827-.1Z" fill="#e5edf3"/>
      <path id="Path-Copy-8" d="M1096.262,2406.542a.87.87,0,0,1-.349,1.471l-.115.025a9,9,0,1,0,10.306,9.747l.024-.319a.77.77,0,0,1,1.293-.518l9.124,8.51a2,2,0,0,1,.1,2.826l-22.506,24.135a2,2,0,0,1-2.826.1l-9.1-8.49a.783.783,0,0,1,.44-1.349l.1-.014a9,9,0,1,0-10.222-10.021l-.041.408a.857.857,0,0,1-1.348.643l-.091-.074-6.037-5.629a2,2,0,0,1-.1-2.827l22.506-24.134a2,2,0,0,1,2.827-.1Z" fill="none" stroke="#727272" stroke-linecap="round" stroke-linejoin="round" stroke-width="1"/>
    </g>
    <g id="Group-46" transform="translate(-864 -2268)">
      <path id="Path-14" data-name="Path" d="M1030.968,2513.271a2,2,0,0,1-.921-2.674l4.449-9.123a.884.884,0,0,1,1.643.139c.035.119.071.228.108.329a9,9,0,1,0,5.678-11.682l-.3.1a.88.88,0,0,1-1.17-1.083l.047-.116,4.89-10.025a2,2,0,0,1,2.675-.921l8.552,4.172a9,9,0,1,1,13.454,6.562l9.451,4.609a2,2,0,0,1,.921,2.675l-15.343,31.457a2,2,0,0,1-2.674.921Z" fill="#e5edf3"/>
      <path id="Path-Copy-5" d="M1031.307,2515.827a2,2,0,0,1-.921-2.674l4.449-9.123a.884.884,0,0,1,1.643.139c.035.119.071.228.108.329a9,9,0,1,0,5.678-11.682l-.3.1a.88.88,0,0,1-1.17-1.084l.047-.116,4.89-10.025a2,2,0,0,1,2.675-.921l8.552,4.172a9,9,0,1,1,13.454,6.562l9.451,4.61a2,2,0,0,1,.921,2.674l-15.343,31.458a2,2,0,0,1-2.674.921Z" fill="none" stroke="#727272" stroke-linecap="round" stroke-linejoin="round" stroke-width="1"/>
    </g>
  </g>
</svg>
