<svg xmlns="http://www.w3.org/2000/svg" width="66.687" height="66.688" viewBox="0 0 66.687 66.688">
  <g id="lanzadera" transform="translate(0 0)">
    <path id="Trazado_50" data-name="Trazado 50" d="M66.609,4.978a5.184,5.184,0,0,0-4.9-4.9C56.364-.214,45.9.07,35.9,5.244A50.663,50.663,0,0,0,21.108,17.511l-.157.191-9.766.754a5.156,5.156,0,0,0-3.928,2.312L.594,30.846a3.571,3.571,0,0,0,2.432,5.5l8.228,1.274c-.029.16-.058.32-.085.48A5.181,5.181,0,0,0,12.622,42.6L24.082,54.066a5.194,5.194,0,0,0,3.665,1.522,5.106,5.106,0,0,0,.841-.07c.16-.027.32-.056.48-.085l1.274,8.228a3.568,3.568,0,0,0,5.5,2.432l10.078-6.663A5.155,5.155,0,0,0,48.23,55.5l.754-9.766.191-.157A50.658,50.658,0,0,0,61.444,30.785c5.173-10,5.457-20.462,5.165-25.806ZM43.764,56.171l-9.64,6.373-1.242-8.019a43.767,43.767,0,0,0,11.944-5.687L44.335,55.2a1.273,1.273,0,0,1-.571.97ZM26.845,51.3,15.384,39.842a1.266,1.266,0,0,1-.361-1.1,33.61,33.61,0,0,1,1.526-5.8l17.2,17.2a33.752,33.752,0,0,1-5.8,1.529A1.267,1.267,0,0,1,26.845,51.3ZM11.486,22.352l6.362-.491a43.764,43.764,0,0,0-5.687,11.944L4.143,32.563l6.374-9.64A1.273,1.273,0,0,1,11.486,22.352ZM46.673,42.578a44.794,44.794,0,0,1-9.044,5.915L18.193,29.057a45.57,45.57,0,0,1,5.916-9.043A46.626,46.626,0,0,1,37.7,8.714c9.179-4.748,18.85-5,23.8-4.734a1.282,1.282,0,0,1,1.211,1.212c.27,4.948.014,14.619-4.734,23.8A46.626,46.626,0,0,1,46.673,42.578Z" transform="translate(0)" fill="#4533fa"/>
    <path id="Trazado_51" data-name="Trazado 51" d="M285.491,105.846a9.761,9.761,0,1,0-6.907-2.857A9.74,9.74,0,0,0,285.491,105.846Zm-4.144-13.908a5.861,5.861,0,1,1-1.717,4.144A5.842,5.842,0,0,1,281.347,91.938Z" transform="translate(-239.811 -75.076)" fill="#4533fa"/>
    <path id="Trazado_52" data-name="Trazado 52" d="M2.255,353.251a1.947,1.947,0,0,0,1.381-.572l6.379-6.379a1.954,1.954,0,1,0-2.763-2.763L.874,349.915a1.954,1.954,0,0,0,1.381,3.335Z" transform="translate(-0.262 -298.294)" fill="#4533fa"/>
    <path id="Trazado_53" data-name="Trazado 53" d="M15.6,388.418a1.954,1.954,0,0,0-2.763,0L.573,400.681a1.954,1.954,0,1,0,2.763,2.763L15.6,391.181A1.954,1.954,0,0,0,15.6,388.418Z" transform="translate(-0.001 -337.329)" fill="#4533fa"/>
    <path id="Trazado_54" data-name="Trazado 54" d="M97.013,433.3l-6.379,6.379A1.954,1.954,0,1,0,93.4,442.44l6.379-6.379a1.954,1.954,0,0,0-2.763-2.763Z" transform="translate(-78.332 -376.364)" fill="#4533fa"/>
  </g>
</svg>
